<mxfile host="Electron" agent="Mozilla/5.0 (Windows NT 10.0; Win64; x64) AppleWebKit/537.36 (KHTML, like Gecko) draw.io/24.7.8 Chrome/128.0.6613.36 Electron/32.0.1 Safari/537.36" version="24.7.8" pages="2">
  <diagram name="Page-1" id="aextBKAanOhM2DSDToT8">
    <mxGraphModel dx="1235" dy="751" grid="1" gridSize="10" guides="1" tooltips="1" connect="1" arrows="1" fold="1" page="1" pageScale="1" pageWidth="850" pageHeight="1100" math="0" shadow="0">
      <root>
        <mxCell id="0" />
        <mxCell id="1" parent="0" />
        <mxCell id="XYGefEsnnX01Ue9v2Dp4-1" value="DPP" style="shape=table;startSize=25;container=1;collapsible=0;childLayout=tableLayout;fixedRows=1;rowLines=1;fontStyle=1;align=center;resizeLast=1;" vertex="1" parent="1">
          <mxGeometry x="378" y="20" width="140" height="201" as="geometry" />
        </mxCell>
        <mxCell id="XYGefEsnnX01Ue9v2Dp4-2" style="shape=tableRow;horizontal=0;startSize=0;swimlaneHead=0;swimlaneBody=0;fillColor=none;collapsible=0;dropTarget=0;points=[[0,0.5],[1,0.5]];portConstraint=eastwest;top=0;left=0;right=0;bottom=0;" vertex="1" parent="XYGefEsnnX01Ue9v2Dp4-1">
          <mxGeometry y="25" width="140" height="22" as="geometry" />
        </mxCell>
        <mxCell id="XYGefEsnnX01Ue9v2Dp4-3" value="string" style="shape=partialRectangle;connectable=0;fillColor=none;top=0;left=0;bottom=0;right=0;align=left;spacingLeft=2;overflow=hidden;fontSize=11;" vertex="1" parent="XYGefEsnnX01Ue9v2Dp4-2">
          <mxGeometry width="36" height="22" as="geometry">
            <mxRectangle width="36" height="22" as="alternateBounds" />
          </mxGeometry>
        </mxCell>
        <mxCell id="XYGefEsnnX01Ue9v2Dp4-4" value="dppId" style="shape=partialRectangle;connectable=0;fillColor=none;top=0;left=0;bottom=0;right=0;align=left;spacingLeft=2;overflow=hidden;fontSize=11;" vertex="1" parent="XYGefEsnnX01Ue9v2Dp4-2">
          <mxGeometry x="36" width="104" height="22" as="geometry">
            <mxRectangle width="104" height="22" as="alternateBounds" />
          </mxGeometry>
        </mxCell>
        <mxCell id="XYGefEsnnX01Ue9v2Dp4-5" style="shape=tableRow;horizontal=0;startSize=0;swimlaneHead=0;swimlaneBody=0;fillColor=none;collapsible=0;dropTarget=0;points=[[0,0.5],[1,0.5]];portConstraint=eastwest;top=0;left=0;right=0;bottom=0;" vertex="1" parent="XYGefEsnnX01Ue9v2Dp4-1">
          <mxGeometry y="47" width="140" height="22" as="geometry" />
        </mxCell>
        <mxCell id="XYGefEsnnX01Ue9v2Dp4-6" value="string" style="shape=partialRectangle;connectable=0;fillColor=none;top=0;left=0;bottom=0;right=0;align=left;spacingLeft=2;overflow=hidden;fontSize=11;" vertex="1" parent="XYGefEsnnX01Ue9v2Dp4-5">
          <mxGeometry width="36" height="22" as="geometry">
            <mxRectangle width="36" height="22" as="alternateBounds" />
          </mxGeometry>
        </mxCell>
        <mxCell id="XYGefEsnnX01Ue9v2Dp4-7" value="version" style="shape=partialRectangle;connectable=0;fillColor=none;top=0;left=0;bottom=0;right=0;align=left;spacingLeft=2;overflow=hidden;fontSize=11;" vertex="1" parent="XYGefEsnnX01Ue9v2Dp4-5">
          <mxGeometry x="36" width="104" height="22" as="geometry">
            <mxRectangle width="104" height="22" as="alternateBounds" />
          </mxGeometry>
        </mxCell>
        <mxCell id="XYGefEsnnX01Ue9v2Dp4-8" style="shape=tableRow;horizontal=0;startSize=0;swimlaneHead=0;swimlaneBody=0;fillColor=none;collapsible=0;dropTarget=0;points=[[0,0.5],[1,0.5]];portConstraint=eastwest;top=0;left=0;right=0;bottom=0;" vertex="1" parent="XYGefEsnnX01Ue9v2Dp4-1">
          <mxGeometry y="69" width="140" height="22" as="geometry" />
        </mxCell>
        <mxCell id="XYGefEsnnX01Ue9v2Dp4-9" value="date" style="shape=partialRectangle;connectable=0;fillColor=none;top=0;left=0;bottom=0;right=0;align=left;spacingLeft=2;overflow=hidden;fontSize=11;" vertex="1" parent="XYGefEsnnX01Ue9v2Dp4-8">
          <mxGeometry width="36" height="22" as="geometry">
            <mxRectangle width="36" height="22" as="alternateBounds" />
          </mxGeometry>
        </mxCell>
        <mxCell id="XYGefEsnnX01Ue9v2Dp4-10" value="creationDate" style="shape=partialRectangle;connectable=0;fillColor=none;top=0;left=0;bottom=0;right=0;align=left;spacingLeft=2;overflow=hidden;fontSize=11;" vertex="1" parent="XYGefEsnnX01Ue9v2Dp4-8">
          <mxGeometry x="36" width="104" height="22" as="geometry">
            <mxRectangle width="104" height="22" as="alternateBounds" />
          </mxGeometry>
        </mxCell>
        <mxCell id="XYGefEsnnX01Ue9v2Dp4-11" style="shape=tableRow;horizontal=0;startSize=0;swimlaneHead=0;swimlaneBody=0;fillColor=none;collapsible=0;dropTarget=0;points=[[0,0.5],[1,0.5]];portConstraint=eastwest;top=0;left=0;right=0;bottom=0;" vertex="1" parent="XYGefEsnnX01Ue9v2Dp4-1">
          <mxGeometry y="91" width="140" height="22" as="geometry" />
        </mxCell>
        <mxCell id="XYGefEsnnX01Ue9v2Dp4-12" value="date" style="shape=partialRectangle;connectable=0;fillColor=none;top=0;left=0;bottom=0;right=0;align=left;spacingLeft=2;overflow=hidden;fontSize=11;" vertex="1" parent="XYGefEsnnX01Ue9v2Dp4-11">
          <mxGeometry width="36" height="22" as="geometry">
            <mxRectangle width="36" height="22" as="alternateBounds" />
          </mxGeometry>
        </mxCell>
        <mxCell id="XYGefEsnnX01Ue9v2Dp4-13" value="lastUpdated" style="shape=partialRectangle;connectable=0;fillColor=none;top=0;left=0;bottom=0;right=0;align=left;spacingLeft=2;overflow=hidden;fontSize=11;" vertex="1" parent="XYGefEsnnX01Ue9v2Dp4-11">
          <mxGeometry x="36" width="104" height="22" as="geometry">
            <mxRectangle width="104" height="22" as="alternateBounds" />
          </mxGeometry>
        </mxCell>
        <mxCell id="XYGefEsnnX01Ue9v2Dp4-14" style="shape=tableRow;horizontal=0;startSize=0;swimlaneHead=0;swimlaneBody=0;fillColor=none;collapsible=0;dropTarget=0;points=[[0,0.5],[1,0.5]];portConstraint=eastwest;top=0;left=0;right=0;bottom=0;" vertex="1" parent="XYGefEsnnX01Ue9v2Dp4-1">
          <mxGeometry y="113" width="140" height="22" as="geometry" />
        </mxCell>
        <mxCell id="XYGefEsnnX01Ue9v2Dp4-15" value="string" style="shape=partialRectangle;connectable=0;fillColor=none;top=0;left=0;bottom=0;right=0;align=left;spacingLeft=2;overflow=hidden;fontSize=11;" vertex="1" parent="XYGefEsnnX01Ue9v2Dp4-14">
          <mxGeometry width="36" height="22" as="geometry">
            <mxRectangle width="36" height="22" as="alternateBounds" />
          </mxGeometry>
        </mxCell>
        <mxCell id="XYGefEsnnX01Ue9v2Dp4-16" value="status" style="shape=partialRectangle;connectable=0;fillColor=none;top=0;left=0;bottom=0;right=0;align=left;spacingLeft=2;overflow=hidden;fontSize=11;" vertex="1" parent="XYGefEsnnX01Ue9v2Dp4-14">
          <mxGeometry x="36" width="104" height="22" as="geometry">
            <mxRectangle width="104" height="22" as="alternateBounds" />
          </mxGeometry>
        </mxCell>
        <mxCell id="XYGefEsnnX01Ue9v2Dp4-17" style="shape=tableRow;horizontal=0;startSize=0;swimlaneHead=0;swimlaneBody=0;fillColor=none;collapsible=0;dropTarget=0;points=[[0,0.5],[1,0.5]];portConstraint=eastwest;top=0;left=0;right=0;bottom=0;" vertex="1" parent="XYGefEsnnX01Ue9v2Dp4-1">
          <mxGeometry y="135" width="140" height="22" as="geometry" />
        </mxCell>
        <mxCell id="XYGefEsnnX01Ue9v2Dp4-18" value="string" style="shape=partialRectangle;connectable=0;fillColor=none;top=0;left=0;bottom=0;right=0;align=left;spacingLeft=2;overflow=hidden;fontSize=11;" vertex="1" parent="XYGefEsnnX01Ue9v2Dp4-17">
          <mxGeometry width="36" height="22" as="geometry">
            <mxRectangle width="36" height="22" as="alternateBounds" />
          </mxGeometry>
        </mxCell>
        <mxCell id="XYGefEsnnX01Ue9v2Dp4-19" value="accessRights" style="shape=partialRectangle;connectable=0;fillColor=none;top=0;left=0;bottom=0;right=0;align=left;spacingLeft=2;overflow=hidden;fontSize=11;" vertex="1" parent="XYGefEsnnX01Ue9v2Dp4-17">
          <mxGeometry x="36" width="104" height="22" as="geometry">
            <mxRectangle width="104" height="22" as="alternateBounds" />
          </mxGeometry>
        </mxCell>
        <mxCell id="XYGefEsnnX01Ue9v2Dp4-20" style="shape=tableRow;horizontal=0;startSize=0;swimlaneHead=0;swimlaneBody=0;fillColor=none;collapsible=0;dropTarget=0;points=[[0,0.5],[1,0.5]];portConstraint=eastwest;top=0;left=0;right=0;bottom=0;" vertex="1" parent="XYGefEsnnX01Ue9v2Dp4-1">
          <mxGeometry y="157" width="140" height="22" as="geometry" />
        </mxCell>
        <mxCell id="XYGefEsnnX01Ue9v2Dp4-21" value="string" style="shape=partialRectangle;connectable=0;fillColor=none;top=0;left=0;bottom=0;right=0;align=left;spacingLeft=2;overflow=hidden;fontSize=11;" vertex="1" parent="XYGefEsnnX01Ue9v2Dp4-20">
          <mxGeometry width="36" height="22" as="geometry">
            <mxRectangle width="36" height="22" as="alternateBounds" />
          </mxGeometry>
        </mxCell>
        <mxCell id="XYGefEsnnX01Ue9v2Dp4-22" value="dataSchema" style="shape=partialRectangle;connectable=0;fillColor=none;top=0;left=0;bottom=0;right=0;align=left;spacingLeft=2;overflow=hidden;fontSize=11;" vertex="1" parent="XYGefEsnnX01Ue9v2Dp4-20">
          <mxGeometry x="36" width="104" height="22" as="geometry">
            <mxRectangle width="104" height="22" as="alternateBounds" />
          </mxGeometry>
        </mxCell>
        <mxCell id="XYGefEsnnX01Ue9v2Dp4-23" style="shape=tableRow;horizontal=0;startSize=0;swimlaneHead=0;swimlaneBody=0;fillColor=none;collapsible=0;dropTarget=0;points=[[0,0.5],[1,0.5]];portConstraint=eastwest;top=0;left=0;right=0;bottom=0;" vertex="1" parent="XYGefEsnnX01Ue9v2Dp4-1">
          <mxGeometry y="179" width="140" height="22" as="geometry" />
        </mxCell>
        <mxCell id="XYGefEsnnX01Ue9v2Dp4-24" value="string" style="shape=partialRectangle;connectable=0;fillColor=none;top=0;left=0;bottom=0;right=0;align=left;spacingLeft=2;overflow=hidden;fontSize=11;" vertex="1" parent="XYGefEsnnX01Ue9v2Dp4-23">
          <mxGeometry width="36" height="22" as="geometry">
            <mxRectangle width="36" height="22" as="alternateBounds" />
          </mxGeometry>
        </mxCell>
        <mxCell id="XYGefEsnnX01Ue9v2Dp4-25" value="digitalSignature" style="shape=partialRectangle;connectable=0;fillColor=none;top=0;left=0;bottom=0;right=0;align=left;spacingLeft=2;overflow=hidden;fontSize=11;" vertex="1" parent="XYGefEsnnX01Ue9v2Dp4-23">
          <mxGeometry x="36" width="104" height="22" as="geometry">
            <mxRectangle width="104" height="22" as="alternateBounds" />
          </mxGeometry>
        </mxCell>
        <mxCell id="XYGefEsnnX01Ue9v2Dp4-26" value="PRODUCT" style="shape=table;startSize=25;container=1;collapsible=0;childLayout=tableLayout;fixedRows=1;rowLines=1;fontStyle=1;align=center;resizeLast=1;" vertex="1" parent="1">
          <mxGeometry x="365" y="320" width="165" height="201" as="geometry" />
        </mxCell>
        <mxCell id="XYGefEsnnX01Ue9v2Dp4-27" style="shape=tableRow;horizontal=0;startSize=0;swimlaneHead=0;swimlaneBody=0;fillColor=none;collapsible=0;dropTarget=0;points=[[0,0.5],[1,0.5]];portConstraint=eastwest;top=0;left=0;right=0;bottom=0;" vertex="1" parent="XYGefEsnnX01Ue9v2Dp4-26">
          <mxGeometry y="25" width="165" height="22" as="geometry" />
        </mxCell>
        <mxCell id="XYGefEsnnX01Ue9v2Dp4-28" value="string" style="shape=partialRectangle;connectable=0;fillColor=none;top=0;left=0;bottom=0;right=0;align=left;spacingLeft=2;overflow=hidden;fontSize=11;" vertex="1" parent="XYGefEsnnX01Ue9v2Dp4-27">
          <mxGeometry width="36" height="22" as="geometry">
            <mxRectangle width="36" height="22" as="alternateBounds" />
          </mxGeometry>
        </mxCell>
        <mxCell id="XYGefEsnnX01Ue9v2Dp4-29" value="productId" style="shape=partialRectangle;connectable=0;fillColor=none;top=0;left=0;bottom=0;right=0;align=left;spacingLeft=2;overflow=hidden;fontSize=11;" vertex="1" parent="XYGefEsnnX01Ue9v2Dp4-27">
          <mxGeometry x="36" width="129" height="22" as="geometry">
            <mxRectangle width="129" height="22" as="alternateBounds" />
          </mxGeometry>
        </mxCell>
        <mxCell id="XYGefEsnnX01Ue9v2Dp4-30" style="shape=tableRow;horizontal=0;startSize=0;swimlaneHead=0;swimlaneBody=0;fillColor=none;collapsible=0;dropTarget=0;points=[[0,0.5],[1,0.5]];portConstraint=eastwest;top=0;left=0;right=0;bottom=0;" vertex="1" parent="XYGefEsnnX01Ue9v2Dp4-26">
          <mxGeometry y="47" width="165" height="22" as="geometry" />
        </mxCell>
        <mxCell id="XYGefEsnnX01Ue9v2Dp4-31" value="string" style="shape=partialRectangle;connectable=0;fillColor=none;top=0;left=0;bottom=0;right=0;align=left;spacingLeft=2;overflow=hidden;fontSize=11;" vertex="1" parent="XYGefEsnnX01Ue9v2Dp4-30">
          <mxGeometry width="36" height="22" as="geometry">
            <mxRectangle width="36" height="22" as="alternateBounds" />
          </mxGeometry>
        </mxCell>
        <mxCell id="XYGefEsnnX01Ue9v2Dp4-32" value="name" style="shape=partialRectangle;connectable=0;fillColor=none;top=0;left=0;bottom=0;right=0;align=left;spacingLeft=2;overflow=hidden;fontSize=11;" vertex="1" parent="XYGefEsnnX01Ue9v2Dp4-30">
          <mxGeometry x="36" width="129" height="22" as="geometry">
            <mxRectangle width="129" height="22" as="alternateBounds" />
          </mxGeometry>
        </mxCell>
        <mxCell id="XYGefEsnnX01Ue9v2Dp4-33" style="shape=tableRow;horizontal=0;startSize=0;swimlaneHead=0;swimlaneBody=0;fillColor=none;collapsible=0;dropTarget=0;points=[[0,0.5],[1,0.5]];portConstraint=eastwest;top=0;left=0;right=0;bottom=0;" vertex="1" parent="XYGefEsnnX01Ue9v2Dp4-26">
          <mxGeometry y="69" width="165" height="22" as="geometry" />
        </mxCell>
        <mxCell id="XYGefEsnnX01Ue9v2Dp4-34" value="string" style="shape=partialRectangle;connectable=0;fillColor=none;top=0;left=0;bottom=0;right=0;align=left;spacingLeft=2;overflow=hidden;fontSize=11;" vertex="1" parent="XYGefEsnnX01Ue9v2Dp4-33">
          <mxGeometry width="36" height="22" as="geometry">
            <mxRectangle width="36" height="22" as="alternateBounds" />
          </mxGeometry>
        </mxCell>
        <mxCell id="XYGefEsnnX01Ue9v2Dp4-35" value="manufacturer" style="shape=partialRectangle;connectable=0;fillColor=none;top=0;left=0;bottom=0;right=0;align=left;spacingLeft=2;overflow=hidden;fontSize=11;" vertex="1" parent="XYGefEsnnX01Ue9v2Dp4-33">
          <mxGeometry x="36" width="129" height="22" as="geometry">
            <mxRectangle width="129" height="22" as="alternateBounds" />
          </mxGeometry>
        </mxCell>
        <mxCell id="XYGefEsnnX01Ue9v2Dp4-36" style="shape=tableRow;horizontal=0;startSize=0;swimlaneHead=0;swimlaneBody=0;fillColor=none;collapsible=0;dropTarget=0;points=[[0,0.5],[1,0.5]];portConstraint=eastwest;top=0;left=0;right=0;bottom=0;" vertex="1" parent="XYGefEsnnX01Ue9v2Dp4-26">
          <mxGeometry y="91" width="165" height="22" as="geometry" />
        </mxCell>
        <mxCell id="XYGefEsnnX01Ue9v2Dp4-37" value="string" style="shape=partialRectangle;connectable=0;fillColor=none;top=0;left=0;bottom=0;right=0;align=left;spacingLeft=2;overflow=hidden;fontSize=11;" vertex="1" parent="XYGefEsnnX01Ue9v2Dp4-36">
          <mxGeometry width="36" height="22" as="geometry">
            <mxRectangle width="36" height="22" as="alternateBounds" />
          </mxGeometry>
        </mxCell>
        <mxCell id="XYGefEsnnX01Ue9v2Dp4-38" value="category" style="shape=partialRectangle;connectable=0;fillColor=none;top=0;left=0;bottom=0;right=0;align=left;spacingLeft=2;overflow=hidden;fontSize=11;" vertex="1" parent="XYGefEsnnX01Ue9v2Dp4-36">
          <mxGeometry x="36" width="129" height="22" as="geometry">
            <mxRectangle width="129" height="22" as="alternateBounds" />
          </mxGeometry>
        </mxCell>
        <mxCell id="XYGefEsnnX01Ue9v2Dp4-39" style="shape=tableRow;horizontal=0;startSize=0;swimlaneHead=0;swimlaneBody=0;fillColor=none;collapsible=0;dropTarget=0;points=[[0,0.5],[1,0.5]];portConstraint=eastwest;top=0;left=0;right=0;bottom=0;" vertex="1" parent="XYGefEsnnX01Ue9v2Dp4-26">
          <mxGeometry y="113" width="165" height="22" as="geometry" />
        </mxCell>
        <mxCell id="XYGefEsnnX01Ue9v2Dp4-40" value="date" style="shape=partialRectangle;connectable=0;fillColor=none;top=0;left=0;bottom=0;right=0;align=left;spacingLeft=2;overflow=hidden;fontSize=11;" vertex="1" parent="XYGefEsnnX01Ue9v2Dp4-39">
          <mxGeometry width="36" height="22" as="geometry">
            <mxRectangle width="36" height="22" as="alternateBounds" />
          </mxGeometry>
        </mxCell>
        <mxCell id="XYGefEsnnX01Ue9v2Dp4-41" value="manufacturingDate" style="shape=partialRectangle;connectable=0;fillColor=none;top=0;left=0;bottom=0;right=0;align=left;spacingLeft=2;overflow=hidden;fontSize=11;" vertex="1" parent="XYGefEsnnX01Ue9v2Dp4-39">
          <mxGeometry x="36" width="129" height="22" as="geometry">
            <mxRectangle width="129" height="22" as="alternateBounds" />
          </mxGeometry>
        </mxCell>
        <mxCell id="XYGefEsnnX01Ue9v2Dp4-42" style="shape=tableRow;horizontal=0;startSize=0;swimlaneHead=0;swimlaneBody=0;fillColor=none;collapsible=0;dropTarget=0;points=[[0,0.5],[1,0.5]];portConstraint=eastwest;top=0;left=0;right=0;bottom=0;" vertex="1" parent="XYGefEsnnX01Ue9v2Dp4-26">
          <mxGeometry y="135" width="165" height="22" as="geometry" />
        </mxCell>
        <mxCell id="XYGefEsnnX01Ue9v2Dp4-43" value="string" style="shape=partialRectangle;connectable=0;fillColor=none;top=0;left=0;bottom=0;right=0;align=left;spacingLeft=2;overflow=hidden;fontSize=11;" vertex="1" parent="XYGefEsnnX01Ue9v2Dp4-42">
          <mxGeometry width="36" height="22" as="geometry">
            <mxRectangle width="36" height="22" as="alternateBounds" />
          </mxGeometry>
        </mxCell>
        <mxCell id="XYGefEsnnX01Ue9v2Dp4-44" value="status" style="shape=partialRectangle;connectable=0;fillColor=none;top=0;left=0;bottom=0;right=0;align=left;spacingLeft=2;overflow=hidden;fontSize=11;" vertex="1" parent="XYGefEsnnX01Ue9v2Dp4-42">
          <mxGeometry x="36" width="129" height="22" as="geometry">
            <mxRectangle width="129" height="22" as="alternateBounds" />
          </mxGeometry>
        </mxCell>
        <mxCell id="XYGefEsnnX01Ue9v2Dp4-45" style="shape=tableRow;horizontal=0;startSize=0;swimlaneHead=0;swimlaneBody=0;fillColor=none;collapsible=0;dropTarget=0;points=[[0,0.5],[1,0.5]];portConstraint=eastwest;top=0;left=0;right=0;bottom=0;" vertex="1" parent="XYGefEsnnX01Ue9v2Dp4-26">
          <mxGeometry y="157" width="165" height="22" as="geometry" />
        </mxCell>
        <mxCell id="XYGefEsnnX01Ue9v2Dp4-46" value="number" style="shape=partialRectangle;connectable=0;fillColor=none;top=0;left=0;bottom=0;right=0;align=left;spacingLeft=2;overflow=hidden;fontSize=11;" vertex="1" parent="XYGefEsnnX01Ue9v2Dp4-45">
          <mxGeometry width="36" height="22" as="geometry">
            <mxRectangle width="36" height="22" as="alternateBounds" />
          </mxGeometry>
        </mxCell>
        <mxCell id="XYGefEsnnX01Ue9v2Dp4-47" value="carbonFootprint" style="shape=partialRectangle;connectable=0;fillColor=none;top=0;left=0;bottom=0;right=0;align=left;spacingLeft=2;overflow=hidden;fontSize=11;" vertex="1" parent="XYGefEsnnX01Ue9v2Dp4-45">
          <mxGeometry x="36" width="129" height="22" as="geometry">
            <mxRectangle width="129" height="22" as="alternateBounds" />
          </mxGeometry>
        </mxCell>
        <mxCell id="XYGefEsnnX01Ue9v2Dp4-48" style="shape=tableRow;horizontal=0;startSize=0;swimlaneHead=0;swimlaneBody=0;fillColor=none;collapsible=0;dropTarget=0;points=[[0,0.5],[1,0.5]];portConstraint=eastwest;top=0;left=0;right=0;bottom=0;" vertex="1" parent="XYGefEsnnX01Ue9v2Dp4-26">
          <mxGeometry y="179" width="165" height="22" as="geometry" />
        </mxCell>
        <mxCell id="XYGefEsnnX01Ue9v2Dp4-49" value="string" style="shape=partialRectangle;connectable=0;fillColor=none;top=0;left=0;bottom=0;right=0;align=left;spacingLeft=2;overflow=hidden;fontSize=11;" vertex="1" parent="XYGefEsnnX01Ue9v2Dp4-48">
          <mxGeometry width="36" height="22" as="geometry">
            <mxRectangle width="36" height="22" as="alternateBounds" />
          </mxGeometry>
        </mxCell>
        <mxCell id="XYGefEsnnX01Ue9v2Dp4-50" value="currentOwner" style="shape=partialRectangle;connectable=0;fillColor=none;top=0;left=0;bottom=0;right=0;align=left;spacingLeft=2;overflow=hidden;fontSize=11;" vertex="1" parent="XYGefEsnnX01Ue9v2Dp4-48">
          <mxGeometry x="36" width="129" height="22" as="geometry">
            <mxRectangle width="129" height="22" as="alternateBounds" />
          </mxGeometry>
        </mxCell>
        <mxCell id="XYGefEsnnX01Ue9v2Dp4-51" value="MATERIAL" style="shape=table;startSize=25;container=1;collapsible=0;childLayout=tableLayout;fixedRows=1;rowLines=1;fontStyle=1;align=center;resizeLast=1;" vertex="1" parent="1">
          <mxGeometry x="20" y="630" width="154" height="201" as="geometry" />
        </mxCell>
        <mxCell id="XYGefEsnnX01Ue9v2Dp4-52" style="shape=tableRow;horizontal=0;startSize=0;swimlaneHead=0;swimlaneBody=0;fillColor=none;collapsible=0;dropTarget=0;points=[[0,0.5],[1,0.5]];portConstraint=eastwest;top=0;left=0;right=0;bottom=0;" vertex="1" parent="XYGefEsnnX01Ue9v2Dp4-51">
          <mxGeometry y="25" width="154" height="22" as="geometry" />
        </mxCell>
        <mxCell id="XYGefEsnnX01Ue9v2Dp4-53" value="string" style="shape=partialRectangle;connectable=0;fillColor=none;top=0;left=0;bottom=0;right=0;align=left;spacingLeft=2;overflow=hidden;fontSize=11;" vertex="1" parent="XYGefEsnnX01Ue9v2Dp4-52">
          <mxGeometry width="42" height="22" as="geometry">
            <mxRectangle width="42" height="22" as="alternateBounds" />
          </mxGeometry>
        </mxCell>
        <mxCell id="XYGefEsnnX01Ue9v2Dp4-54" value="materialId" style="shape=partialRectangle;connectable=0;fillColor=none;top=0;left=0;bottom=0;right=0;align=left;spacingLeft=2;overflow=hidden;fontSize=11;" vertex="1" parent="XYGefEsnnX01Ue9v2Dp4-52">
          <mxGeometry x="42" width="112" height="22" as="geometry">
            <mxRectangle width="112" height="22" as="alternateBounds" />
          </mxGeometry>
        </mxCell>
        <mxCell id="XYGefEsnnX01Ue9v2Dp4-55" style="shape=tableRow;horizontal=0;startSize=0;swimlaneHead=0;swimlaneBody=0;fillColor=none;collapsible=0;dropTarget=0;points=[[0,0.5],[1,0.5]];portConstraint=eastwest;top=0;left=0;right=0;bottom=0;" vertex="1" parent="XYGefEsnnX01Ue9v2Dp4-51">
          <mxGeometry y="47" width="154" height="22" as="geometry" />
        </mxCell>
        <mxCell id="XYGefEsnnX01Ue9v2Dp4-56" value="string" style="shape=partialRectangle;connectable=0;fillColor=none;top=0;left=0;bottom=0;right=0;align=left;spacingLeft=2;overflow=hidden;fontSize=11;" vertex="1" parent="XYGefEsnnX01Ue9v2Dp4-55">
          <mxGeometry width="42" height="22" as="geometry">
            <mxRectangle width="42" height="22" as="alternateBounds" />
          </mxGeometry>
        </mxCell>
        <mxCell id="XYGefEsnnX01Ue9v2Dp4-57" value="name" style="shape=partialRectangle;connectable=0;fillColor=none;top=0;left=0;bottom=0;right=0;align=left;spacingLeft=2;overflow=hidden;fontSize=11;" vertex="1" parent="XYGefEsnnX01Ue9v2Dp4-55">
          <mxGeometry x="42" width="112" height="22" as="geometry">
            <mxRectangle width="112" height="22" as="alternateBounds" />
          </mxGeometry>
        </mxCell>
        <mxCell id="XYGefEsnnX01Ue9v2Dp4-58" style="shape=tableRow;horizontal=0;startSize=0;swimlaneHead=0;swimlaneBody=0;fillColor=none;collapsible=0;dropTarget=0;points=[[0,0.5],[1,0.5]];portConstraint=eastwest;top=0;left=0;right=0;bottom=0;" vertex="1" parent="XYGefEsnnX01Ue9v2Dp4-51">
          <mxGeometry y="69" width="154" height="22" as="geometry" />
        </mxCell>
        <mxCell id="XYGefEsnnX01Ue9v2Dp4-59" value="string" style="shape=partialRectangle;connectable=0;fillColor=none;top=0;left=0;bottom=0;right=0;align=left;spacingLeft=2;overflow=hidden;fontSize=11;" vertex="1" parent="XYGefEsnnX01Ue9v2Dp4-58">
          <mxGeometry width="42" height="22" as="geometry">
            <mxRectangle width="42" height="22" as="alternateBounds" />
          </mxGeometry>
        </mxCell>
        <mxCell id="XYGefEsnnX01Ue9v2Dp4-60" value="type" style="shape=partialRectangle;connectable=0;fillColor=none;top=0;left=0;bottom=0;right=0;align=left;spacingLeft=2;overflow=hidden;fontSize=11;" vertex="1" parent="XYGefEsnnX01Ue9v2Dp4-58">
          <mxGeometry x="42" width="112" height="22" as="geometry">
            <mxRectangle width="112" height="22" as="alternateBounds" />
          </mxGeometry>
        </mxCell>
        <mxCell id="XYGefEsnnX01Ue9v2Dp4-61" style="shape=tableRow;horizontal=0;startSize=0;swimlaneHead=0;swimlaneBody=0;fillColor=none;collapsible=0;dropTarget=0;points=[[0,0.5],[1,0.5]];portConstraint=eastwest;top=0;left=0;right=0;bottom=0;" vertex="1" parent="XYGefEsnnX01Ue9v2Dp4-51">
          <mxGeometry y="91" width="154" height="22" as="geometry" />
        </mxCell>
        <mxCell id="XYGefEsnnX01Ue9v2Dp4-62" value="number" style="shape=partialRectangle;connectable=0;fillColor=none;top=0;left=0;bottom=0;right=0;align=left;spacingLeft=2;overflow=hidden;fontSize=11;" vertex="1" parent="XYGefEsnnX01Ue9v2Dp4-61">
          <mxGeometry width="42" height="22" as="geometry">
            <mxRectangle width="42" height="22" as="alternateBounds" />
          </mxGeometry>
        </mxCell>
        <mxCell id="XYGefEsnnX01Ue9v2Dp4-63" value="recycledContent" style="shape=partialRectangle;connectable=0;fillColor=none;top=0;left=0;bottom=0;right=0;align=left;spacingLeft=2;overflow=hidden;fontSize=11;" vertex="1" parent="XYGefEsnnX01Ue9v2Dp4-61">
          <mxGeometry x="42" width="112" height="22" as="geometry">
            <mxRectangle width="112" height="22" as="alternateBounds" />
          </mxGeometry>
        </mxCell>
        <mxCell id="XYGefEsnnX01Ue9v2Dp4-64" style="shape=tableRow;horizontal=0;startSize=0;swimlaneHead=0;swimlaneBody=0;fillColor=none;collapsible=0;dropTarget=0;points=[[0,0.5],[1,0.5]];portConstraint=eastwest;top=0;left=0;right=0;bottom=0;" vertex="1" parent="XYGefEsnnX01Ue9v2Dp4-51">
          <mxGeometry y="113" width="154" height="22" as="geometry" />
        </mxCell>
        <mxCell id="XYGefEsnnX01Ue9v2Dp4-65" value="boolean" style="shape=partialRectangle;connectable=0;fillColor=none;top=0;left=0;bottom=0;right=0;align=left;spacingLeft=2;overflow=hidden;fontSize=11;" vertex="1" parent="XYGefEsnnX01Ue9v2Dp4-64">
          <mxGeometry width="42" height="22" as="geometry">
            <mxRectangle width="42" height="22" as="alternateBounds" />
          </mxGeometry>
        </mxCell>
        <mxCell id="XYGefEsnnX01Ue9v2Dp4-66" value="hazardous" style="shape=partialRectangle;connectable=0;fillColor=none;top=0;left=0;bottom=0;right=0;align=left;spacingLeft=2;overflow=hidden;fontSize=11;" vertex="1" parent="XYGefEsnnX01Ue9v2Dp4-64">
          <mxGeometry x="42" width="112" height="22" as="geometry">
            <mxRectangle width="112" height="22" as="alternateBounds" />
          </mxGeometry>
        </mxCell>
        <mxCell id="XYGefEsnnX01Ue9v2Dp4-67" style="shape=tableRow;horizontal=0;startSize=0;swimlaneHead=0;swimlaneBody=0;fillColor=none;collapsible=0;dropTarget=0;points=[[0,0.5],[1,0.5]];portConstraint=eastwest;top=0;left=0;right=0;bottom=0;" vertex="1" parent="XYGefEsnnX01Ue9v2Dp4-51">
          <mxGeometry y="135" width="154" height="22" as="geometry" />
        </mxCell>
        <mxCell id="XYGefEsnnX01Ue9v2Dp4-68" value="string" style="shape=partialRectangle;connectable=0;fillColor=none;top=0;left=0;bottom=0;right=0;align=left;spacingLeft=2;overflow=hidden;fontSize=11;" vertex="1" parent="XYGefEsnnX01Ue9v2Dp4-67">
          <mxGeometry width="42" height="22" as="geometry">
            <mxRectangle width="42" height="22" as="alternateBounds" />
          </mxGeometry>
        </mxCell>
        <mxCell id="XYGefEsnnX01Ue9v2Dp4-69" value="sourceLocation" style="shape=partialRectangle;connectable=0;fillColor=none;top=0;left=0;bottom=0;right=0;align=left;spacingLeft=2;overflow=hidden;fontSize=11;" vertex="1" parent="XYGefEsnnX01Ue9v2Dp4-67">
          <mxGeometry x="42" width="112" height="22" as="geometry">
            <mxRectangle width="112" height="22" as="alternateBounds" />
          </mxGeometry>
        </mxCell>
        <mxCell id="XYGefEsnnX01Ue9v2Dp4-70" style="shape=tableRow;horizontal=0;startSize=0;swimlaneHead=0;swimlaneBody=0;fillColor=none;collapsible=0;dropTarget=0;points=[[0,0.5],[1,0.5]];portConstraint=eastwest;top=0;left=0;right=0;bottom=0;" vertex="1" parent="XYGefEsnnX01Ue9v2Dp4-51">
          <mxGeometry y="157" width="154" height="22" as="geometry" />
        </mxCell>
        <mxCell id="XYGefEsnnX01Ue9v2Dp4-71" value="number" style="shape=partialRectangle;connectable=0;fillColor=none;top=0;left=0;bottom=0;right=0;align=left;spacingLeft=2;overflow=hidden;fontSize=11;" vertex="1" parent="XYGefEsnnX01Ue9v2Dp4-70">
          <mxGeometry width="42" height="22" as="geometry">
            <mxRectangle width="42" height="22" as="alternateBounds" />
          </mxGeometry>
        </mxCell>
        <mxCell id="XYGefEsnnX01Ue9v2Dp4-72" value="quantity" style="shape=partialRectangle;connectable=0;fillColor=none;top=0;left=0;bottom=0;right=0;align=left;spacingLeft=2;overflow=hidden;fontSize=11;" vertex="1" parent="XYGefEsnnX01Ue9v2Dp4-70">
          <mxGeometry x="42" width="112" height="22" as="geometry">
            <mxRectangle width="112" height="22" as="alternateBounds" />
          </mxGeometry>
        </mxCell>
        <mxCell id="XYGefEsnnX01Ue9v2Dp4-73" style="shape=tableRow;horizontal=0;startSize=0;swimlaneHead=0;swimlaneBody=0;fillColor=none;collapsible=0;dropTarget=0;points=[[0,0.5],[1,0.5]];portConstraint=eastwest;top=0;left=0;right=0;bottom=0;" vertex="1" parent="XYGefEsnnX01Ue9v2Dp4-51">
          <mxGeometry y="179" width="154" height="22" as="geometry" />
        </mxCell>
        <mxCell id="XYGefEsnnX01Ue9v2Dp4-74" value="string" style="shape=partialRectangle;connectable=0;fillColor=none;top=0;left=0;bottom=0;right=0;align=left;spacingLeft=2;overflow=hidden;fontSize=11;" vertex="1" parent="XYGefEsnnX01Ue9v2Dp4-73">
          <mxGeometry width="42" height="22" as="geometry">
            <mxRectangle width="42" height="22" as="alternateBounds" />
          </mxGeometry>
        </mxCell>
        <mxCell id="XYGefEsnnX01Ue9v2Dp4-75" value="unit" style="shape=partialRectangle;connectable=0;fillColor=none;top=0;left=0;bottom=0;right=0;align=left;spacingLeft=2;overflow=hidden;fontSize=11;" vertex="1" parent="XYGefEsnnX01Ue9v2Dp4-73">
          <mxGeometry x="42" width="112" height="22" as="geometry">
            <mxRectangle width="112" height="22" as="alternateBounds" />
          </mxGeometry>
        </mxCell>
        <mxCell id="XYGefEsnnX01Ue9v2Dp4-76" value="LIFECYCLE_EVENT" style="shape=table;startSize=25;container=1;collapsible=0;childLayout=tableLayout;fixedRows=1;rowLines=1;fontStyle=1;align=center;resizeLast=1;" vertex="1" parent="1">
          <mxGeometry x="274" y="652" width="127" height="157" as="geometry" />
        </mxCell>
        <mxCell id="XYGefEsnnX01Ue9v2Dp4-77" style="shape=tableRow;horizontal=0;startSize=0;swimlaneHead=0;swimlaneBody=0;fillColor=none;collapsible=0;dropTarget=0;points=[[0,0.5],[1,0.5]];portConstraint=eastwest;top=0;left=0;right=0;bottom=0;" vertex="1" parent="XYGefEsnnX01Ue9v2Dp4-76">
          <mxGeometry y="25" width="127" height="22" as="geometry" />
        </mxCell>
        <mxCell id="XYGefEsnnX01Ue9v2Dp4-78" value="string" style="shape=partialRectangle;connectable=0;fillColor=none;top=0;left=0;bottom=0;right=0;align=left;spacingLeft=2;overflow=hidden;fontSize=11;" vertex="1" parent="XYGefEsnnX01Ue9v2Dp4-77">
          <mxGeometry width="36" height="22" as="geometry">
            <mxRectangle width="36" height="22" as="alternateBounds" />
          </mxGeometry>
        </mxCell>
        <mxCell id="XYGefEsnnX01Ue9v2Dp4-79" value="eventId" style="shape=partialRectangle;connectable=0;fillColor=none;top=0;left=0;bottom=0;right=0;align=left;spacingLeft=2;overflow=hidden;fontSize=11;" vertex="1" parent="XYGefEsnnX01Ue9v2Dp4-77">
          <mxGeometry x="36" width="91" height="22" as="geometry">
            <mxRectangle width="91" height="22" as="alternateBounds" />
          </mxGeometry>
        </mxCell>
        <mxCell id="XYGefEsnnX01Ue9v2Dp4-80" style="shape=tableRow;horizontal=0;startSize=0;swimlaneHead=0;swimlaneBody=0;fillColor=none;collapsible=0;dropTarget=0;points=[[0,0.5],[1,0.5]];portConstraint=eastwest;top=0;left=0;right=0;bottom=0;" vertex="1" parent="XYGefEsnnX01Ue9v2Dp4-76">
          <mxGeometry y="47" width="127" height="22" as="geometry" />
        </mxCell>
        <mxCell id="XYGefEsnnX01Ue9v2Dp4-81" value="string" style="shape=partialRectangle;connectable=0;fillColor=none;top=0;left=0;bottom=0;right=0;align=left;spacingLeft=2;overflow=hidden;fontSize=11;" vertex="1" parent="XYGefEsnnX01Ue9v2Dp4-80">
          <mxGeometry width="36" height="22" as="geometry">
            <mxRectangle width="36" height="22" as="alternateBounds" />
          </mxGeometry>
        </mxCell>
        <mxCell id="XYGefEsnnX01Ue9v2Dp4-82" value="type" style="shape=partialRectangle;connectable=0;fillColor=none;top=0;left=0;bottom=0;right=0;align=left;spacingLeft=2;overflow=hidden;fontSize=11;" vertex="1" parent="XYGefEsnnX01Ue9v2Dp4-80">
          <mxGeometry x="36" width="91" height="22" as="geometry">
            <mxRectangle width="91" height="22" as="alternateBounds" />
          </mxGeometry>
        </mxCell>
        <mxCell id="XYGefEsnnX01Ue9v2Dp4-83" style="shape=tableRow;horizontal=0;startSize=0;swimlaneHead=0;swimlaneBody=0;fillColor=none;collapsible=0;dropTarget=0;points=[[0,0.5],[1,0.5]];portConstraint=eastwest;top=0;left=0;right=0;bottom=0;" vertex="1" parent="XYGefEsnnX01Ue9v2Dp4-76">
          <mxGeometry y="69" width="127" height="22" as="geometry" />
        </mxCell>
        <mxCell id="XYGefEsnnX01Ue9v2Dp4-84" value="date" style="shape=partialRectangle;connectable=0;fillColor=none;top=0;left=0;bottom=0;right=0;align=left;spacingLeft=2;overflow=hidden;fontSize=11;" vertex="1" parent="XYGefEsnnX01Ue9v2Dp4-83">
          <mxGeometry width="36" height="22" as="geometry">
            <mxRectangle width="36" height="22" as="alternateBounds" />
          </mxGeometry>
        </mxCell>
        <mxCell id="XYGefEsnnX01Ue9v2Dp4-85" value="timestamp" style="shape=partialRectangle;connectable=0;fillColor=none;top=0;left=0;bottom=0;right=0;align=left;spacingLeft=2;overflow=hidden;fontSize=11;" vertex="1" parent="XYGefEsnnX01Ue9v2Dp4-83">
          <mxGeometry x="36" width="91" height="22" as="geometry">
            <mxRectangle width="91" height="22" as="alternateBounds" />
          </mxGeometry>
        </mxCell>
        <mxCell id="XYGefEsnnX01Ue9v2Dp4-86" style="shape=tableRow;horizontal=0;startSize=0;swimlaneHead=0;swimlaneBody=0;fillColor=none;collapsible=0;dropTarget=0;points=[[0,0.5],[1,0.5]];portConstraint=eastwest;top=0;left=0;right=0;bottom=0;" vertex="1" parent="XYGefEsnnX01Ue9v2Dp4-76">
          <mxGeometry y="91" width="127" height="22" as="geometry" />
        </mxCell>
        <mxCell id="XYGefEsnnX01Ue9v2Dp4-87" value="string" style="shape=partialRectangle;connectable=0;fillColor=none;top=0;left=0;bottom=0;right=0;align=left;spacingLeft=2;overflow=hidden;fontSize=11;" vertex="1" parent="XYGefEsnnX01Ue9v2Dp4-86">
          <mxGeometry width="36" height="22" as="geometry">
            <mxRectangle width="36" height="22" as="alternateBounds" />
          </mxGeometry>
        </mxCell>
        <mxCell id="XYGefEsnnX01Ue9v2Dp4-88" value="location" style="shape=partialRectangle;connectable=0;fillColor=none;top=0;left=0;bottom=0;right=0;align=left;spacingLeft=2;overflow=hidden;fontSize=11;" vertex="1" parent="XYGefEsnnX01Ue9v2Dp4-86">
          <mxGeometry x="36" width="91" height="22" as="geometry">
            <mxRectangle width="91" height="22" as="alternateBounds" />
          </mxGeometry>
        </mxCell>
        <mxCell id="XYGefEsnnX01Ue9v2Dp4-89" style="shape=tableRow;horizontal=0;startSize=0;swimlaneHead=0;swimlaneBody=0;fillColor=none;collapsible=0;dropTarget=0;points=[[0,0.5],[1,0.5]];portConstraint=eastwest;top=0;left=0;right=0;bottom=0;" vertex="1" parent="XYGefEsnnX01Ue9v2Dp4-76">
          <mxGeometry y="113" width="127" height="22" as="geometry" />
        </mxCell>
        <mxCell id="XYGefEsnnX01Ue9v2Dp4-90" value="string" style="shape=partialRectangle;connectable=0;fillColor=none;top=0;left=0;bottom=0;right=0;align=left;spacingLeft=2;overflow=hidden;fontSize=11;" vertex="1" parent="XYGefEsnnX01Ue9v2Dp4-89">
          <mxGeometry width="36" height="22" as="geometry">
            <mxRectangle width="36" height="22" as="alternateBounds" />
          </mxGeometry>
        </mxCell>
        <mxCell id="XYGefEsnnX01Ue9v2Dp4-91" value="handler" style="shape=partialRectangle;connectable=0;fillColor=none;top=0;left=0;bottom=0;right=0;align=left;spacingLeft=2;overflow=hidden;fontSize=11;" vertex="1" parent="XYGefEsnnX01Ue9v2Dp4-89">
          <mxGeometry x="36" width="91" height="22" as="geometry">
            <mxRectangle width="91" height="22" as="alternateBounds" />
          </mxGeometry>
        </mxCell>
        <mxCell id="XYGefEsnnX01Ue9v2Dp4-92" style="shape=tableRow;horizontal=0;startSize=0;swimlaneHead=0;swimlaneBody=0;fillColor=none;collapsible=0;dropTarget=0;points=[[0,0.5],[1,0.5]];portConstraint=eastwest;top=0;left=0;right=0;bottom=0;" vertex="1" parent="XYGefEsnnX01Ue9v2Dp4-76">
          <mxGeometry y="135" width="127" height="22" as="geometry" />
        </mxCell>
        <mxCell id="XYGefEsnnX01Ue9v2Dp4-93" value="string" style="shape=partialRectangle;connectable=0;fillColor=none;top=0;left=0;bottom=0;right=0;align=left;spacingLeft=2;overflow=hidden;fontSize=11;" vertex="1" parent="XYGefEsnnX01Ue9v2Dp4-92">
          <mxGeometry width="36" height="22" as="geometry">
            <mxRectangle width="36" height="22" as="alternateBounds" />
          </mxGeometry>
        </mxCell>
        <mxCell id="XYGefEsnnX01Ue9v2Dp4-94" value="description" style="shape=partialRectangle;connectable=0;fillColor=none;top=0;left=0;bottom=0;right=0;align=left;spacingLeft=2;overflow=hidden;fontSize=11;" vertex="1" parent="XYGefEsnnX01Ue9v2Dp4-92">
          <mxGeometry x="36" width="91" height="22" as="geometry">
            <mxRectangle width="91" height="22" as="alternateBounds" />
          </mxGeometry>
        </mxCell>
        <mxCell id="XYGefEsnnX01Ue9v2Dp4-95" value="CERTIFICATION" style="shape=table;startSize=25;container=1;collapsible=0;childLayout=tableLayout;fixedRows=1;rowLines=1;fontStyle=1;align=center;resizeLast=1;" vertex="1" parent="1">
          <mxGeometry x="501" y="652" width="115" height="157" as="geometry" />
        </mxCell>
        <mxCell id="XYGefEsnnX01Ue9v2Dp4-96" style="shape=tableRow;horizontal=0;startSize=0;swimlaneHead=0;swimlaneBody=0;fillColor=none;collapsible=0;dropTarget=0;points=[[0,0.5],[1,0.5]];portConstraint=eastwest;top=0;left=0;right=0;bottom=0;" vertex="1" parent="XYGefEsnnX01Ue9v2Dp4-95">
          <mxGeometry y="25" width="115" height="22" as="geometry" />
        </mxCell>
        <mxCell id="XYGefEsnnX01Ue9v2Dp4-97" value="string" style="shape=partialRectangle;connectable=0;fillColor=none;top=0;left=0;bottom=0;right=0;align=left;spacingLeft=2;overflow=hidden;fontSize=11;" vertex="1" parent="XYGefEsnnX01Ue9v2Dp4-96">
          <mxGeometry width="36" height="22" as="geometry">
            <mxRectangle width="36" height="22" as="alternateBounds" />
          </mxGeometry>
        </mxCell>
        <mxCell id="XYGefEsnnX01Ue9v2Dp4-98" value="certId" style="shape=partialRectangle;connectable=0;fillColor=none;top=0;left=0;bottom=0;right=0;align=left;spacingLeft=2;overflow=hidden;fontSize=11;" vertex="1" parent="XYGefEsnnX01Ue9v2Dp4-96">
          <mxGeometry x="36" width="79" height="22" as="geometry">
            <mxRectangle width="79" height="22" as="alternateBounds" />
          </mxGeometry>
        </mxCell>
        <mxCell id="XYGefEsnnX01Ue9v2Dp4-99" style="shape=tableRow;horizontal=0;startSize=0;swimlaneHead=0;swimlaneBody=0;fillColor=none;collapsible=0;dropTarget=0;points=[[0,0.5],[1,0.5]];portConstraint=eastwest;top=0;left=0;right=0;bottom=0;" vertex="1" parent="XYGefEsnnX01Ue9v2Dp4-95">
          <mxGeometry y="47" width="115" height="22" as="geometry" />
        </mxCell>
        <mxCell id="XYGefEsnnX01Ue9v2Dp4-100" value="string" style="shape=partialRectangle;connectable=0;fillColor=none;top=0;left=0;bottom=0;right=0;align=left;spacingLeft=2;overflow=hidden;fontSize=11;" vertex="1" parent="XYGefEsnnX01Ue9v2Dp4-99">
          <mxGeometry width="36" height="22" as="geometry">
            <mxRectangle width="36" height="22" as="alternateBounds" />
          </mxGeometry>
        </mxCell>
        <mxCell id="XYGefEsnnX01Ue9v2Dp4-101" value="name" style="shape=partialRectangle;connectable=0;fillColor=none;top=0;left=0;bottom=0;right=0;align=left;spacingLeft=2;overflow=hidden;fontSize=11;" vertex="1" parent="XYGefEsnnX01Ue9v2Dp4-99">
          <mxGeometry x="36" width="79" height="22" as="geometry">
            <mxRectangle width="79" height="22" as="alternateBounds" />
          </mxGeometry>
        </mxCell>
        <mxCell id="XYGefEsnnX01Ue9v2Dp4-102" style="shape=tableRow;horizontal=0;startSize=0;swimlaneHead=0;swimlaneBody=0;fillColor=none;collapsible=0;dropTarget=0;points=[[0,0.5],[1,0.5]];portConstraint=eastwest;top=0;left=0;right=0;bottom=0;" vertex="1" parent="XYGefEsnnX01Ue9v2Dp4-95">
          <mxGeometry y="69" width="115" height="22" as="geometry" />
        </mxCell>
        <mxCell id="XYGefEsnnX01Ue9v2Dp4-103" value="string" style="shape=partialRectangle;connectable=0;fillColor=none;top=0;left=0;bottom=0;right=0;align=left;spacingLeft=2;overflow=hidden;fontSize=11;" vertex="1" parent="XYGefEsnnX01Ue9v2Dp4-102">
          <mxGeometry width="36" height="22" as="geometry">
            <mxRectangle width="36" height="22" as="alternateBounds" />
          </mxGeometry>
        </mxCell>
        <mxCell id="XYGefEsnnX01Ue9v2Dp4-104" value="issuer" style="shape=partialRectangle;connectable=0;fillColor=none;top=0;left=0;bottom=0;right=0;align=left;spacingLeft=2;overflow=hidden;fontSize=11;" vertex="1" parent="XYGefEsnnX01Ue9v2Dp4-102">
          <mxGeometry x="36" width="79" height="22" as="geometry">
            <mxRectangle width="79" height="22" as="alternateBounds" />
          </mxGeometry>
        </mxCell>
        <mxCell id="XYGefEsnnX01Ue9v2Dp4-105" style="shape=tableRow;horizontal=0;startSize=0;swimlaneHead=0;swimlaneBody=0;fillColor=none;collapsible=0;dropTarget=0;points=[[0,0.5],[1,0.5]];portConstraint=eastwest;top=0;left=0;right=0;bottom=0;" vertex="1" parent="XYGefEsnnX01Ue9v2Dp4-95">
          <mxGeometry y="91" width="115" height="22" as="geometry" />
        </mxCell>
        <mxCell id="XYGefEsnnX01Ue9v2Dp4-106" value="date" style="shape=partialRectangle;connectable=0;fillColor=none;top=0;left=0;bottom=0;right=0;align=left;spacingLeft=2;overflow=hidden;fontSize=11;" vertex="1" parent="XYGefEsnnX01Ue9v2Dp4-105">
          <mxGeometry width="36" height="22" as="geometry">
            <mxRectangle width="36" height="22" as="alternateBounds" />
          </mxGeometry>
        </mxCell>
        <mxCell id="XYGefEsnnX01Ue9v2Dp4-107" value="validFrom" style="shape=partialRectangle;connectable=0;fillColor=none;top=0;left=0;bottom=0;right=0;align=left;spacingLeft=2;overflow=hidden;fontSize=11;" vertex="1" parent="XYGefEsnnX01Ue9v2Dp4-105">
          <mxGeometry x="36" width="79" height="22" as="geometry">
            <mxRectangle width="79" height="22" as="alternateBounds" />
          </mxGeometry>
        </mxCell>
        <mxCell id="XYGefEsnnX01Ue9v2Dp4-108" style="shape=tableRow;horizontal=0;startSize=0;swimlaneHead=0;swimlaneBody=0;fillColor=none;collapsible=0;dropTarget=0;points=[[0,0.5],[1,0.5]];portConstraint=eastwest;top=0;left=0;right=0;bottom=0;" vertex="1" parent="XYGefEsnnX01Ue9v2Dp4-95">
          <mxGeometry y="113" width="115" height="22" as="geometry" />
        </mxCell>
        <mxCell id="XYGefEsnnX01Ue9v2Dp4-109" value="date" style="shape=partialRectangle;connectable=0;fillColor=none;top=0;left=0;bottom=0;right=0;align=left;spacingLeft=2;overflow=hidden;fontSize=11;" vertex="1" parent="XYGefEsnnX01Ue9v2Dp4-108">
          <mxGeometry width="36" height="22" as="geometry">
            <mxRectangle width="36" height="22" as="alternateBounds" />
          </mxGeometry>
        </mxCell>
        <mxCell id="XYGefEsnnX01Ue9v2Dp4-110" value="validUntil" style="shape=partialRectangle;connectable=0;fillColor=none;top=0;left=0;bottom=0;right=0;align=left;spacingLeft=2;overflow=hidden;fontSize=11;" vertex="1" parent="XYGefEsnnX01Ue9v2Dp4-108">
          <mxGeometry x="36" width="79" height="22" as="geometry">
            <mxRectangle width="79" height="22" as="alternateBounds" />
          </mxGeometry>
        </mxCell>
        <mxCell id="XYGefEsnnX01Ue9v2Dp4-111" style="shape=tableRow;horizontal=0;startSize=0;swimlaneHead=0;swimlaneBody=0;fillColor=none;collapsible=0;dropTarget=0;points=[[0,0.5],[1,0.5]];portConstraint=eastwest;top=0;left=0;right=0;bottom=0;" vertex="1" parent="XYGefEsnnX01Ue9v2Dp4-95">
          <mxGeometry y="135" width="115" height="22" as="geometry" />
        </mxCell>
        <mxCell id="XYGefEsnnX01Ue9v2Dp4-112" value="string" style="shape=partialRectangle;connectable=0;fillColor=none;top=0;left=0;bottom=0;right=0;align=left;spacingLeft=2;overflow=hidden;fontSize=11;" vertex="1" parent="XYGefEsnnX01Ue9v2Dp4-111">
          <mxGeometry width="36" height="22" as="geometry">
            <mxRectangle width="36" height="22" as="alternateBounds" />
          </mxGeometry>
        </mxCell>
        <mxCell id="XYGefEsnnX01Ue9v2Dp4-113" value="standard" style="shape=partialRectangle;connectable=0;fillColor=none;top=0;left=0;bottom=0;right=0;align=left;spacingLeft=2;overflow=hidden;fontSize=11;" vertex="1" parent="XYGefEsnnX01Ue9v2Dp4-111">
          <mxGeometry x="36" width="79" height="22" as="geometry">
            <mxRectangle width="79" height="22" as="alternateBounds" />
          </mxGeometry>
        </mxCell>
        <mxCell id="XYGefEsnnX01Ue9v2Dp4-114" value="SERVICE_HISTORY" style="shape=table;startSize=25;container=1;collapsible=0;childLayout=tableLayout;fixedRows=1;rowLines=1;fontStyle=1;align=center;resizeLast=1;" vertex="1" parent="1">
          <mxGeometry x="716" y="619" width="139" height="223" as="geometry" />
        </mxCell>
        <mxCell id="XYGefEsnnX01Ue9v2Dp4-115" style="shape=tableRow;horizontal=0;startSize=0;swimlaneHead=0;swimlaneBody=0;fillColor=none;collapsible=0;dropTarget=0;points=[[0,0.5],[1,0.5]];portConstraint=eastwest;top=0;left=0;right=0;bottom=0;" vertex="1" parent="XYGefEsnnX01Ue9v2Dp4-114">
          <mxGeometry y="25" width="139" height="22" as="geometry" />
        </mxCell>
        <mxCell id="XYGefEsnnX01Ue9v2Dp4-116" value="string" style="shape=partialRectangle;connectable=0;fillColor=none;top=0;left=0;bottom=0;right=0;align=left;spacingLeft=2;overflow=hidden;fontSize=11;" vertex="1" parent="XYGefEsnnX01Ue9v2Dp4-115">
          <mxGeometry width="36" height="22" as="geometry">
            <mxRectangle width="36" height="22" as="alternateBounds" />
          </mxGeometry>
        </mxCell>
        <mxCell id="XYGefEsnnX01Ue9v2Dp4-117" value="serviceId" style="shape=partialRectangle;connectable=0;fillColor=none;top=0;left=0;bottom=0;right=0;align=left;spacingLeft=2;overflow=hidden;fontSize=11;" vertex="1" parent="XYGefEsnnX01Ue9v2Dp4-115">
          <mxGeometry x="36" width="103" height="22" as="geometry">
            <mxRectangle width="103" height="22" as="alternateBounds" />
          </mxGeometry>
        </mxCell>
        <mxCell id="XYGefEsnnX01Ue9v2Dp4-118" style="shape=tableRow;horizontal=0;startSize=0;swimlaneHead=0;swimlaneBody=0;fillColor=none;collapsible=0;dropTarget=0;points=[[0,0.5],[1,0.5]];portConstraint=eastwest;top=0;left=0;right=0;bottom=0;" vertex="1" parent="XYGefEsnnX01Ue9v2Dp4-114">
          <mxGeometry y="47" width="139" height="22" as="geometry" />
        </mxCell>
        <mxCell id="XYGefEsnnX01Ue9v2Dp4-119" value="date" style="shape=partialRectangle;connectable=0;fillColor=none;top=0;left=0;bottom=0;right=0;align=left;spacingLeft=2;overflow=hidden;fontSize=11;" vertex="1" parent="XYGefEsnnX01Ue9v2Dp4-118">
          <mxGeometry width="36" height="22" as="geometry">
            <mxRectangle width="36" height="22" as="alternateBounds" />
          </mxGeometry>
        </mxCell>
        <mxCell id="XYGefEsnnX01Ue9v2Dp4-120" value="serviceDate" style="shape=partialRectangle;connectable=0;fillColor=none;top=0;left=0;bottom=0;right=0;align=left;spacingLeft=2;overflow=hidden;fontSize=11;" vertex="1" parent="XYGefEsnnX01Ue9v2Dp4-118">
          <mxGeometry x="36" width="103" height="22" as="geometry">
            <mxRectangle width="103" height="22" as="alternateBounds" />
          </mxGeometry>
        </mxCell>
        <mxCell id="XYGefEsnnX01Ue9v2Dp4-121" style="shape=tableRow;horizontal=0;startSize=0;swimlaneHead=0;swimlaneBody=0;fillColor=none;collapsible=0;dropTarget=0;points=[[0,0.5],[1,0.5]];portConstraint=eastwest;top=0;left=0;right=0;bottom=0;" vertex="1" parent="XYGefEsnnX01Ue9v2Dp4-114">
          <mxGeometry y="69" width="139" height="22" as="geometry" />
        </mxCell>
        <mxCell id="XYGefEsnnX01Ue9v2Dp4-122" value="string" style="shape=partialRectangle;connectable=0;fillColor=none;top=0;left=0;bottom=0;right=0;align=left;spacingLeft=2;overflow=hidden;fontSize=11;" vertex="1" parent="XYGefEsnnX01Ue9v2Dp4-121">
          <mxGeometry width="36" height="22" as="geometry">
            <mxRectangle width="36" height="22" as="alternateBounds" />
          </mxGeometry>
        </mxCell>
        <mxCell id="XYGefEsnnX01Ue9v2Dp4-123" value="serviceType" style="shape=partialRectangle;connectable=0;fillColor=none;top=0;left=0;bottom=0;right=0;align=left;spacingLeft=2;overflow=hidden;fontSize=11;" vertex="1" parent="XYGefEsnnX01Ue9v2Dp4-121">
          <mxGeometry x="36" width="103" height="22" as="geometry">
            <mxRectangle width="103" height="22" as="alternateBounds" />
          </mxGeometry>
        </mxCell>
        <mxCell id="XYGefEsnnX01Ue9v2Dp4-124" style="shape=tableRow;horizontal=0;startSize=0;swimlaneHead=0;swimlaneBody=0;fillColor=none;collapsible=0;dropTarget=0;points=[[0,0.5],[1,0.5]];portConstraint=eastwest;top=0;left=0;right=0;bottom=0;" vertex="1" parent="XYGefEsnnX01Ue9v2Dp4-114">
          <mxGeometry y="91" width="139" height="22" as="geometry" />
        </mxCell>
        <mxCell id="XYGefEsnnX01Ue9v2Dp4-125" value="string" style="shape=partialRectangle;connectable=0;fillColor=none;top=0;left=0;bottom=0;right=0;align=left;spacingLeft=2;overflow=hidden;fontSize=11;" vertex="1" parent="XYGefEsnnX01Ue9v2Dp4-124">
          <mxGeometry width="36" height="22" as="geometry">
            <mxRectangle width="36" height="22" as="alternateBounds" />
          </mxGeometry>
        </mxCell>
        <mxCell id="XYGefEsnnX01Ue9v2Dp4-126" value="provider" style="shape=partialRectangle;connectable=0;fillColor=none;top=0;left=0;bottom=0;right=0;align=left;spacingLeft=2;overflow=hidden;fontSize=11;" vertex="1" parent="XYGefEsnnX01Ue9v2Dp4-124">
          <mxGeometry x="36" width="103" height="22" as="geometry">
            <mxRectangle width="103" height="22" as="alternateBounds" />
          </mxGeometry>
        </mxCell>
        <mxCell id="XYGefEsnnX01Ue9v2Dp4-127" style="shape=tableRow;horizontal=0;startSize=0;swimlaneHead=0;swimlaneBody=0;fillColor=none;collapsible=0;dropTarget=0;points=[[0,0.5],[1,0.5]];portConstraint=eastwest;top=0;left=0;right=0;bottom=0;" vertex="1" parent="XYGefEsnnX01Ue9v2Dp4-114">
          <mxGeometry y="113" width="139" height="22" as="geometry" />
        </mxCell>
        <mxCell id="XYGefEsnnX01Ue9v2Dp4-128" value="string" style="shape=partialRectangle;connectable=0;fillColor=none;top=0;left=0;bottom=0;right=0;align=left;spacingLeft=2;overflow=hidden;fontSize=11;" vertex="1" parent="XYGefEsnnX01Ue9v2Dp4-127">
          <mxGeometry width="36" height="22" as="geometry">
            <mxRectangle width="36" height="22" as="alternateBounds" />
          </mxGeometry>
        </mxCell>
        <mxCell id="XYGefEsnnX01Ue9v2Dp4-129" value="description" style="shape=partialRectangle;connectable=0;fillColor=none;top=0;left=0;bottom=0;right=0;align=left;spacingLeft=2;overflow=hidden;fontSize=11;" vertex="1" parent="XYGefEsnnX01Ue9v2Dp4-127">
          <mxGeometry x="36" width="103" height="22" as="geometry">
            <mxRectangle width="103" height="22" as="alternateBounds" />
          </mxGeometry>
        </mxCell>
        <mxCell id="XYGefEsnnX01Ue9v2Dp4-130" style="shape=tableRow;horizontal=0;startSize=0;swimlaneHead=0;swimlaneBody=0;fillColor=none;collapsible=0;dropTarget=0;points=[[0,0.5],[1,0.5]];portConstraint=eastwest;top=0;left=0;right=0;bottom=0;" vertex="1" parent="XYGefEsnnX01Ue9v2Dp4-114">
          <mxGeometry y="135" width="139" height="22" as="geometry" />
        </mxCell>
        <mxCell id="XYGefEsnnX01Ue9v2Dp4-131" value="string" style="shape=partialRectangle;connectable=0;fillColor=none;top=0;left=0;bottom=0;right=0;align=left;spacingLeft=2;overflow=hidden;fontSize=11;" vertex="1" parent="XYGefEsnnX01Ue9v2Dp4-130">
          <mxGeometry width="36" height="22" as="geometry">
            <mxRectangle width="36" height="22" as="alternateBounds" />
          </mxGeometry>
        </mxCell>
        <mxCell id="XYGefEsnnX01Ue9v2Dp4-132" value="partsReplaced" style="shape=partialRectangle;connectable=0;fillColor=none;top=0;left=0;bottom=0;right=0;align=left;spacingLeft=2;overflow=hidden;fontSize=11;" vertex="1" parent="XYGefEsnnX01Ue9v2Dp4-130">
          <mxGeometry x="36" width="103" height="22" as="geometry">
            <mxRectangle width="103" height="22" as="alternateBounds" />
          </mxGeometry>
        </mxCell>
        <mxCell id="XYGefEsnnX01Ue9v2Dp4-133" style="shape=tableRow;horizontal=0;startSize=0;swimlaneHead=0;swimlaneBody=0;fillColor=none;collapsible=0;dropTarget=0;points=[[0,0.5],[1,0.5]];portConstraint=eastwest;top=0;left=0;right=0;bottom=0;" vertex="1" parent="XYGefEsnnX01Ue9v2Dp4-114">
          <mxGeometry y="157" width="139" height="22" as="geometry" />
        </mxCell>
        <mxCell id="XYGefEsnnX01Ue9v2Dp4-134" value="string" style="shape=partialRectangle;connectable=0;fillColor=none;top=0;left=0;bottom=0;right=0;align=left;spacingLeft=2;overflow=hidden;fontSize=11;" vertex="1" parent="XYGefEsnnX01Ue9v2Dp4-133">
          <mxGeometry width="36" height="22" as="geometry">
            <mxRectangle width="36" height="22" as="alternateBounds" />
          </mxGeometry>
        </mxCell>
        <mxCell id="XYGefEsnnX01Ue9v2Dp4-135" value="nextServiceDue" style="shape=partialRectangle;connectable=0;fillColor=none;top=0;left=0;bottom=0;right=0;align=left;spacingLeft=2;overflow=hidden;fontSize=11;" vertex="1" parent="XYGefEsnnX01Ue9v2Dp4-133">
          <mxGeometry x="36" width="103" height="22" as="geometry">
            <mxRectangle width="103" height="22" as="alternateBounds" />
          </mxGeometry>
        </mxCell>
        <mxCell id="XYGefEsnnX01Ue9v2Dp4-136" style="shape=tableRow;horizontal=0;startSize=0;swimlaneHead=0;swimlaneBody=0;fillColor=none;collapsible=0;dropTarget=0;points=[[0,0.5],[1,0.5]];portConstraint=eastwest;top=0;left=0;right=0;bottom=0;" vertex="1" parent="XYGefEsnnX01Ue9v2Dp4-114">
          <mxGeometry y="179" width="139" height="22" as="geometry" />
        </mxCell>
        <mxCell id="XYGefEsnnX01Ue9v2Dp4-137" value="string" style="shape=partialRectangle;connectable=0;fillColor=none;top=0;left=0;bottom=0;right=0;align=left;spacingLeft=2;overflow=hidden;fontSize=11;" vertex="1" parent="XYGefEsnnX01Ue9v2Dp4-136">
          <mxGeometry width="36" height="22" as="geometry">
            <mxRectangle width="36" height="22" as="alternateBounds" />
          </mxGeometry>
        </mxCell>
        <mxCell id="XYGefEsnnX01Ue9v2Dp4-138" value="warranty" style="shape=partialRectangle;connectable=0;fillColor=none;top=0;left=0;bottom=0;right=0;align=left;spacingLeft=2;overflow=hidden;fontSize=11;" vertex="1" parent="XYGefEsnnX01Ue9v2Dp4-136">
          <mxGeometry x="36" width="103" height="22" as="geometry">
            <mxRectangle width="103" height="22" as="alternateBounds" />
          </mxGeometry>
        </mxCell>
        <mxCell id="XYGefEsnnX01Ue9v2Dp4-139" style="shape=tableRow;horizontal=0;startSize=0;swimlaneHead=0;swimlaneBody=0;fillColor=none;collapsible=0;dropTarget=0;points=[[0,0.5],[1,0.5]];portConstraint=eastwest;top=0;left=0;right=0;bottom=0;" vertex="1" parent="XYGefEsnnX01Ue9v2Dp4-114">
          <mxGeometry y="201" width="139" height="22" as="geometry" />
        </mxCell>
        <mxCell id="XYGefEsnnX01Ue9v2Dp4-140" value="string" style="shape=partialRectangle;connectable=0;fillColor=none;top=0;left=0;bottom=0;right=0;align=left;spacingLeft=2;overflow=hidden;fontSize=11;" vertex="1" parent="XYGefEsnnX01Ue9v2Dp4-139">
          <mxGeometry width="36" height="22" as="geometry">
            <mxRectangle width="36" height="22" as="alternateBounds" />
          </mxGeometry>
        </mxCell>
        <mxCell id="XYGefEsnnX01Ue9v2Dp4-141" value="cost" style="shape=partialRectangle;connectable=0;fillColor=none;top=0;left=0;bottom=0;right=0;align=left;spacingLeft=2;overflow=hidden;fontSize=11;" vertex="1" parent="XYGefEsnnX01Ue9v2Dp4-139">
          <mxGeometry x="36" width="103" height="22" as="geometry">
            <mxRectangle width="103" height="22" as="alternateBounds" />
          </mxGeometry>
        </mxCell>
        <mxCell id="XYGefEsnnX01Ue9v2Dp4-142" value="digital twin of" style="curved=1;startArrow=ERmandOne;startSize=10;;endArrow=ERmandOne;endSize=10;;exitX=0.5;exitY=1;entryX=0.5;entryY=0;rounded=0;" edge="1" parent="1" source="XYGefEsnnX01Ue9v2Dp4-1" target="XYGefEsnnX01Ue9v2Dp4-26">
          <mxGeometry relative="1" as="geometry">
            <Array as="points" />
          </mxGeometry>
        </mxCell>
        <mxCell id="XYGefEsnnX01Ue9v2Dp4-143" value="contains" style="curved=1;startArrow=ERmandOne;startSize=10;;endArrow=ERmany;endSize=10;;exitX=0;exitY=0.67;entryX=0.5;entryY=0;rounded=0;" edge="1" parent="1" source="XYGefEsnnX01Ue9v2Dp4-26" target="XYGefEsnnX01Ue9v2Dp4-51">
          <mxGeometry relative="1" as="geometry">
            <Array as="points">
              <mxPoint x="97" y="569" />
            </Array>
          </mxGeometry>
        </mxCell>
        <mxCell id="XYGefEsnnX01Ue9v2Dp4-144" value="tracks" style="curved=1;startArrow=ERmandOne;startSize=10;;endArrow=ERmany;endSize=10;;exitX=0.06;exitY=1;entryX=0.5;entryY=0;rounded=0;" edge="1" parent="1" source="XYGefEsnnX01Ue9v2Dp4-26" target="XYGefEsnnX01Ue9v2Dp4-76">
          <mxGeometry relative="1" as="geometry">
            <Array as="points">
              <mxPoint x="338" y="569" />
            </Array>
          </mxGeometry>
        </mxCell>
        <mxCell id="XYGefEsnnX01Ue9v2Dp4-145" value="certified by" style="curved=1;startArrow=ERmandOne;startSize=10;;endArrow=ERmany;endSize=10;;exitX=0.95;exitY=1;entryX=0.5;entryY=0;rounded=0;" edge="1" parent="1" source="XYGefEsnnX01Ue9v2Dp4-26" target="XYGefEsnnX01Ue9v2Dp4-95">
          <mxGeometry relative="1" as="geometry">
            <Array as="points">
              <mxPoint x="559" y="569" />
            </Array>
          </mxGeometry>
        </mxCell>
        <mxCell id="XYGefEsnnX01Ue9v2Dp4-146" value="maintains" style="curved=1;startArrow=ERmandOne;startSize=10;;endArrow=ERmany;endSize=10;;exitX=1;exitY=0.68;entryX=0.5;entryY=0;rounded=0;" edge="1" parent="1" source="XYGefEsnnX01Ue9v2Dp4-26" target="XYGefEsnnX01Ue9v2Dp4-114">
          <mxGeometry relative="1" as="geometry">
            <Array as="points">
              <mxPoint x="785" y="569" />
            </Array>
          </mxGeometry>
        </mxCell>
      </root>
    </mxGraphModel>
  </diagram>
  <diagram id="v7Hj0f56TVI5_wpwyRdO" name="Page-2">
    <mxGraphModel dx="724" dy="440" grid="1" gridSize="10" guides="1" tooltips="1" connect="1" arrows="1" fold="1" page="1" pageScale="1" pageWidth="850" pageHeight="1100" math="0" shadow="0">
      <root>
        <mxCell id="0" />
        <mxCell id="1" parent="0" />
        <mxCell id="H1zWvLSKgxRQ0cgBEC_u-27" value="End-of-Life Events" style="swimlane;fontStyle=1;align=center;verticalAlign=middle;startSize=25;container=0;collapsible=0;rounded=1;arcSize=14;dropTarget=0;" vertex="1" parent="1">
          <mxGeometry x="811" y="87" width="488" height="335" as="geometry" />
        </mxCell>
        <mxCell id="H1zWvLSKgxRQ0cgBEC_u-28" value="Collection" style="rounded=1;absoluteArcSize=1;arcSize=14;whiteSpace=wrap;strokeWidth=2;" vertex="1" parent="H1zWvLSKgxRQ0cgBEC_u-27">
          <mxGeometry x="191" y="33" width="87" height="33" as="geometry" />
        </mxCell>
        <mxCell id="H1zWvLSKgxRQ0cgBEC_u-29" value="Sorting" style="rounded=1;absoluteArcSize=1;arcSize=14;whiteSpace=wrap;strokeWidth=2;" vertex="1" parent="H1zWvLSKgxRQ0cgBEC_u-27">
          <mxGeometry x="202" y="116" width="65" height="33" as="geometry" />
        </mxCell>
        <mxCell id="H1zWvLSKgxRQ0cgBEC_u-30" value="Recycling" style="rounded=1;absoluteArcSize=1;arcSize=14;whiteSpace=wrap;strokeWidth=2;" vertex="1" parent="H1zWvLSKgxRQ0cgBEC_u-27">
          <mxGeometry x="43" y="200" width="82" height="33" as="geometry" />
        </mxCell>
        <mxCell id="H1zWvLSKgxRQ0cgBEC_u-31" value="Refurbishment" style="rounded=1;absoluteArcSize=1;arcSize=14;whiteSpace=wrap;strokeWidth=2;" vertex="1" parent="H1zWvLSKgxRQ0cgBEC_u-27">
          <mxGeometry x="175" y="200" width="119" height="33" as="geometry" />
        </mxCell>
        <mxCell id="H1zWvLSKgxRQ0cgBEC_u-32" value="WasteDisposal" style="rounded=1;absoluteArcSize=1;arcSize=14;whiteSpace=wrap;strokeWidth=2;" vertex="1" parent="H1zWvLSKgxRQ0cgBEC_u-27">
          <mxGeometry x="344" y="200" width="117" height="33" as="geometry" />
        </mxCell>
        <mxCell id="H1zWvLSKgxRQ0cgBEC_u-33" value="Resale" style="rounded=1;absoluteArcSize=1;arcSize=14;whiteSpace=wrap;strokeWidth=2;" vertex="1" parent="H1zWvLSKgxRQ0cgBEC_u-27">
          <mxGeometry x="200" y="283" width="69" height="33" as="geometry" />
        </mxCell>
        <mxCell id="H1zWvLSKgxRQ0cgBEC_u-34" value="" style="curved=1;startArrow=none;;exitX=0.5;exitY=1;entryX=0.5;entryY=0;rounded=0;exitDx=0;exitDy=0;entryDx=0;entryDy=0;" edge="1" parent="H1zWvLSKgxRQ0cgBEC_u-27" source="H1zWvLSKgxRQ0cgBEC_u-28" target="H1zWvLSKgxRQ0cgBEC_u-29">
          <mxGeometry relative="1" as="geometry">
            <Array as="points" />
          </mxGeometry>
        </mxCell>
        <mxCell id="H1zWvLSKgxRQ0cgBEC_u-35" value="" style="curved=1;startArrow=none;;exitX=0;exitY=0.5;entryX=0.5;entryY=0;rounded=0;exitDx=0;exitDy=0;entryDx=0;entryDy=0;" edge="1" parent="H1zWvLSKgxRQ0cgBEC_u-27" source="H1zWvLSKgxRQ0cgBEC_u-29" target="H1zWvLSKgxRQ0cgBEC_u-30">
          <mxGeometry relative="1" as="geometry">
            <Array as="points">
              <mxPoint x="84" y="175" />
            </Array>
          </mxGeometry>
        </mxCell>
        <mxCell id="H1zWvLSKgxRQ0cgBEC_u-36" value="" style="curved=1;startArrow=none;;exitX=0.5;exitY=1;rounded=0;exitDx=0;exitDy=0;" edge="1" parent="H1zWvLSKgxRQ0cgBEC_u-27" source="H1zWvLSKgxRQ0cgBEC_u-29" target="H1zWvLSKgxRQ0cgBEC_u-31">
          <mxGeometry relative="1" as="geometry">
            <Array as="points" />
          </mxGeometry>
        </mxCell>
        <mxCell id="H1zWvLSKgxRQ0cgBEC_u-37" value="" style="curved=1;startArrow=none;;exitX=1;exitY=0.5;entryX=0.5;entryY=0;rounded=0;exitDx=0;exitDy=0;entryDx=0;entryDy=0;" edge="1" parent="H1zWvLSKgxRQ0cgBEC_u-27" source="H1zWvLSKgxRQ0cgBEC_u-29" target="H1zWvLSKgxRQ0cgBEC_u-32">
          <mxGeometry relative="1" as="geometry">
            <Array as="points">
              <mxPoint x="403" y="175" />
            </Array>
          </mxGeometry>
        </mxCell>
        <mxCell id="H1zWvLSKgxRQ0cgBEC_u-38" value="" style="curved=1;startArrow=none;;exitX=0.5;exitY=1;entryX=0.5;entryY=0;rounded=0;exitDx=0;exitDy=0;entryDx=0;entryDy=0;" edge="1" parent="H1zWvLSKgxRQ0cgBEC_u-27" source="H1zWvLSKgxRQ0cgBEC_u-31" target="H1zWvLSKgxRQ0cgBEC_u-33">
          <mxGeometry relative="1" as="geometry">
            <Array as="points" />
          </mxGeometry>
        </mxCell>
        <mxCell id="H1zWvLSKgxRQ0cgBEC_u-15" value="Usage Events" style="swimlane;fontStyle=1;align=center;verticalAlign=middle;startSize=25;container=0;collapsible=0;rounded=1;arcSize=14;dropTarget=0;" vertex="1" parent="1">
          <mxGeometry x="501" y="20" width="260" height="469" as="geometry" />
        </mxCell>
        <mxCell id="H1zWvLSKgxRQ0cgBEC_u-16" value="Sale" style="rounded=1;absoluteArcSize=1;arcSize=14;whiteSpace=wrap;strokeWidth=2;" vertex="1" parent="H1zWvLSKgxRQ0cgBEC_u-15">
          <mxGeometry x="116" y="33" width="45" height="33" as="geometry" />
        </mxCell>
        <mxCell id="H1zWvLSKgxRQ0cgBEC_u-17" value="Installation" style="rounded=1;absoluteArcSize=1;arcSize=14;whiteSpace=wrap;strokeWidth=2;" vertex="1" parent="H1zWvLSKgxRQ0cgBEC_u-15">
          <mxGeometry x="90" y="116" width="96" height="33" as="geometry" />
        </mxCell>
        <mxCell id="H1zWvLSKgxRQ0cgBEC_u-18" value="Ownership" style="swimlane;fontStyle=1;align=center;verticalAlign=middle;startSize=25;container=0;collapsible=0;rounded=1;arcSize=14;dropTarget=0;" vertex="1" parent="H1zWvLSKgxRQ0cgBEC_u-15">
          <mxGeometry x="43" y="200" width="190" height="251" as="geometry" />
        </mxCell>
        <mxCell id="H1zWvLSKgxRQ0cgBEC_u-19" value="Active" style="rounded=1;absoluteArcSize=1;arcSize=14;whiteSpace=wrap;strokeWidth=2;" vertex="1" parent="H1zWvLSKgxRQ0cgBEC_u-18">
          <mxGeometry x="57" y="33" width="61" height="33" as="geometry" />
        </mxCell>
        <mxCell id="H1zWvLSKgxRQ0cgBEC_u-20" value="Maintenance" style="rounded=1;absoluteArcSize=1;arcSize=14;whiteSpace=wrap;strokeWidth=2;" vertex="1" parent="H1zWvLSKgxRQ0cgBEC_u-18">
          <mxGeometry x="57" y="200" width="73" height="33" as="geometry" />
        </mxCell>
        <mxCell id="H1zWvLSKgxRQ0cgBEC_u-22" value="" style="curved=1;startArrow=none;;exitX=0.25;exitY=1;entryX=-0.45;entryY=-6.07;rounded=0;exitDx=0;exitDy=0;" edge="1" parent="H1zWvLSKgxRQ0cgBEC_u-18" source="H1zWvLSKgxRQ0cgBEC_u-19" target="H1zWvLSKgxRQ0cgBEC_u-20">
          <mxGeometry relative="1" as="geometry">
            <Array as="points">
              <mxPoint x="51" y="91" />
              <mxPoint x="51" y="175" />
            </Array>
          </mxGeometry>
        </mxCell>
        <mxCell id="H1zWvLSKgxRQ0cgBEC_u-23" value="" style="curved=1;startArrow=classic;;exitX=0.75;exitY=1;entryX=0.75;entryY=0;rounded=0;entryDx=0;entryDy=0;exitDx=0;exitDy=0;endArrow=none;endFill=0;startFill=1;" edge="1" parent="H1zWvLSKgxRQ0cgBEC_u-18" source="H1zWvLSKgxRQ0cgBEC_u-19" target="H1zWvLSKgxRQ0cgBEC_u-20">
          <mxGeometry relative="1" as="geometry">
            <Array as="points">
              <mxPoint x="124" y="91" />
            </Array>
            <mxPoint x="121.20839694656502" y="116" as="targetPoint" />
          </mxGeometry>
        </mxCell>
        <mxCell id="H1zWvLSKgxRQ0cgBEC_u-25" value="" style="curved=1;startArrow=none;;exitX=0.5;exitY=1;entryX=0.5;entryY=0;rounded=0;entryDx=0;entryDy=0;exitDx=0;exitDy=0;" edge="1" parent="H1zWvLSKgxRQ0cgBEC_u-15" source="H1zWvLSKgxRQ0cgBEC_u-16" target="H1zWvLSKgxRQ0cgBEC_u-17">
          <mxGeometry relative="1" as="geometry">
            <Array as="points" />
          </mxGeometry>
        </mxCell>
        <mxCell id="H1zWvLSKgxRQ0cgBEC_u-26" value="" style="curved=1;startArrow=none;;exitX=0.5;exitY=1;entryX=0.5;entryY=0;rounded=0;exitDx=0;exitDy=0;entryDx=0;entryDy=0;" edge="1" parent="H1zWvLSKgxRQ0cgBEC_u-15" source="H1zWvLSKgxRQ0cgBEC_u-17" target="H1zWvLSKgxRQ0cgBEC_u-18">
          <mxGeometry relative="1" as="geometry">
            <Array as="points" />
          </mxGeometry>
        </mxCell>
        <mxCell id="H1zWvLSKgxRQ0cgBEC_u-9" value="Distribution Events" style="swimlane;fontStyle=1;align=center;verticalAlign=middle;startSize=25;container=0;collapsible=0;rounded=1;arcSize=14;dropTarget=0;" vertex="1" parent="1">
          <mxGeometry x="250" y="129" width="201" height="251" as="geometry" />
        </mxCell>
        <mxCell id="H1zWvLSKgxRQ0cgBEC_u-10" value="Storage" style="rounded=1;absoluteArcSize=1;arcSize=14;whiteSpace=wrap;strokeWidth=2;" vertex="1" parent="H1zWvLSKgxRQ0cgBEC_u-9">
          <mxGeometry x="74" y="33" width="69" height="33" as="geometry" />
        </mxCell>
        <mxCell id="H1zWvLSKgxRQ0cgBEC_u-11" value="Transport" style="rounded=1;absoluteArcSize=1;arcSize=14;whiteSpace=wrap;strokeWidth=2;" vertex="1" parent="H1zWvLSKgxRQ0cgBEC_u-9">
          <mxGeometry x="67" y="116" width="83" height="33" as="geometry" />
        </mxCell>
        <mxCell id="H1zWvLSKgxRQ0cgBEC_u-12" value="RetailerReceival" style="rounded=1;absoluteArcSize=1;arcSize=14;whiteSpace=wrap;strokeWidth=2;" vertex="1" parent="H1zWvLSKgxRQ0cgBEC_u-9">
          <mxGeometry x="43" y="200" width="131" height="33" as="geometry" />
        </mxCell>
        <mxCell id="H1zWvLSKgxRQ0cgBEC_u-13" value="" style="curved=1;startArrow=none;;exitX=0.5;exitY=1;entryX=0.5;entryY=0;rounded=0;exitDx=0;exitDy=0;entryDx=0;entryDy=0;" edge="1" parent="H1zWvLSKgxRQ0cgBEC_u-9" source="H1zWvLSKgxRQ0cgBEC_u-10" target="H1zWvLSKgxRQ0cgBEC_u-11">
          <mxGeometry relative="1" as="geometry">
            <Array as="points" />
          </mxGeometry>
        </mxCell>
        <mxCell id="H1zWvLSKgxRQ0cgBEC_u-14" value="" style="curved=1;startArrow=none;;exitX=0.5;exitY=1;entryX=0.5;entryY=0;rounded=0;exitDx=0;exitDy=0;entryDx=0;entryDy=0;" edge="1" parent="H1zWvLSKgxRQ0cgBEC_u-9" source="H1zWvLSKgxRQ0cgBEC_u-11" target="H1zWvLSKgxRQ0cgBEC_u-12">
          <mxGeometry relative="1" as="geometry">
            <Array as="points" />
          </mxGeometry>
        </mxCell>
        <mxCell id="H1zWvLSKgxRQ0cgBEC_u-1" value="Manufacturing Events" style="swimlane;fontStyle=1;align=center;verticalAlign=middle;startSize=25;container=0;collapsible=0;rounded=1;arcSize=14;dropTarget=0;" vertex="1" parent="1">
          <mxGeometry x="20" y="97" width="180" height="315" as="geometry" />
        </mxCell>
        <mxCell id="H1zWvLSKgxRQ0cgBEC_u-2" value="" style="ellipse;fillColor=strokeColor;" vertex="1" parent="H1zWvLSKgxRQ0cgBEC_u-1">
          <mxGeometry x="91" y="33" width="14" height="14" as="geometry" />
        </mxCell>
        <mxCell id="H1zWvLSKgxRQ0cgBEC_u-3" value="Production" style="rounded=1;absoluteArcSize=1;arcSize=14;whiteSpace=wrap;strokeWidth=2;" vertex="1" parent="H1zWvLSKgxRQ0cgBEC_u-1">
          <mxGeometry x="52" y="97" width="92" height="33" as="geometry" />
        </mxCell>
        <mxCell id="H1zWvLSKgxRQ0cgBEC_u-4" value="QualityCheck" style="rounded=1;absoluteArcSize=1;arcSize=14;whiteSpace=wrap;strokeWidth=2;" vertex="1" parent="H1zWvLSKgxRQ0cgBEC_u-1">
          <mxGeometry x="43" y="180" width="110" height="33" as="geometry" />
        </mxCell>
        <mxCell id="H1zWvLSKgxRQ0cgBEC_u-5" value="Packaging" style="rounded=1;absoluteArcSize=1;arcSize=14;whiteSpace=wrap;strokeWidth=2;" vertex="1" parent="H1zWvLSKgxRQ0cgBEC_u-1">
          <mxGeometry x="55" y="264" width="85" height="33" as="geometry" />
        </mxCell>
        <mxCell id="H1zWvLSKgxRQ0cgBEC_u-6" value="" style="curved=1;startArrow=none;;exitX=-0.06;exitY=-5.07;entryX=0.41;entryY=-2.58;rounded=0;" edge="1" parent="H1zWvLSKgxRQ0cgBEC_u-1" source="H1zWvLSKgxRQ0cgBEC_u-2" target="H1zWvLSKgxRQ0cgBEC_u-3">
          <mxGeometry relative="1" as="geometry">
            <Array as="points" />
          </mxGeometry>
        </mxCell>
        <mxCell id="H1zWvLSKgxRQ0cgBEC_u-7" value="" style="curved=1;startArrow=none;;entryX=0.43;entryY=-2.56;rounded=0;exitX=0.5;exitY=1;exitDx=0;exitDy=0;" edge="1" parent="H1zWvLSKgxRQ0cgBEC_u-1" source="H1zWvLSKgxRQ0cgBEC_u-3" target="H1zWvLSKgxRQ0cgBEC_u-4">
          <mxGeometry relative="1" as="geometry">
            <Array as="points" />
            <mxPoint x="97" y="133" as="sourcePoint" />
          </mxGeometry>
        </mxCell>
        <mxCell id="H1zWvLSKgxRQ0cgBEC_u-8" value="" style="curved=1;startArrow=none;;exitX=0.43;exitY=-1.55;entryX=0.41;entryY=-2.58;rounded=0;" edge="1" parent="H1zWvLSKgxRQ0cgBEC_u-1" source="H1zWvLSKgxRQ0cgBEC_u-4" target="H1zWvLSKgxRQ0cgBEC_u-5">
          <mxGeometry relative="1" as="geometry">
            <Array as="points" />
          </mxGeometry>
        </mxCell>
        <mxCell id="H1zWvLSKgxRQ0cgBEC_u-39" value="" style="curved=1;startArrow=none;;exitX=1;exitY=0.5;entryX=0;entryY=0.5;rounded=0;" edge="1" parent="1" source="H1zWvLSKgxRQ0cgBEC_u-1" target="H1zWvLSKgxRQ0cgBEC_u-9">
          <mxGeometry relative="1" as="geometry">
            <Array as="points" />
          </mxGeometry>
        </mxCell>
        <mxCell id="H1zWvLSKgxRQ0cgBEC_u-40" value="" style="curved=1;startArrow=none;;exitX=1;exitY=0.5;entryX=0;entryY=0.5;rounded=0;" edge="1" parent="1" source="H1zWvLSKgxRQ0cgBEC_u-9" target="H1zWvLSKgxRQ0cgBEC_u-15">
          <mxGeometry relative="1" as="geometry">
            <Array as="points" />
          </mxGeometry>
        </mxCell>
        <mxCell id="H1zWvLSKgxRQ0cgBEC_u-41" value="" style="curved=1;startArrow=none;;exitX=1;exitY=0.5;entryX=0;entryY=0.5;rounded=0;" edge="1" parent="1" source="H1zWvLSKgxRQ0cgBEC_u-15" target="H1zWvLSKgxRQ0cgBEC_u-27">
          <mxGeometry relative="1" as="geometry">
            <Array as="points" />
          </mxGeometry>
        </mxCell>
      </root>
    </mxGraphModel>
  </diagram>
</mxfile>
